<svg xmlns="http://www.w3.org/2000/svg" width="880" height="614" viewBox="0 0 880 614"><rect x="0" y="0" width="880" height="614" fill="#ffffff"/><text x="20.00" y="30.00" font-family="ui-sans-serif, -apple-system, BlinkMacSystemFont, 'Segoe UI', Helvetica, Arial, sans-serif" font-size="17" fill="#111827" text-anchor="start" font-weight="bold">Lineage flow: requirement fate across layers</text><text x="20.00" y="50.00" font-family="ui-sans-serif, -apple-system, BlinkMacSystemFont, 'Segoe UI', Helvetica, Arial, sans-serif" font-size="12" fill="#4b5563" text-anchor="start" font-weight="normal">Each strand is one S0 requirement; color = fate at that layer.</text><text x="250.00" y="46.00" font-family="ui-sans-serif, -apple-system, BlinkMacSystemFont, 'Segoe UI', Helvetica, Arial, sans-serif" font-size="12" fill="#111827" text-anchor="middle" font-weight="bold">Intent (S0)</text><text x="440.00" y="46.00" font-family="ui-sans-serif, -apple-system, BlinkMacSystemFont, 'Segoe UI', Helvetica, Arial, sans-serif" font-size="12" fill="#111827" text-anchor="middle" font-weight="bold">Decomposition (S1)</text><text x="630.00" y="46.00" font-family="ui-sans-serif, -apple-system, BlinkMacSystemFont, 'Segoe UI', Helvetica, Arial, sans-serif" font-size="12" fill="#111827" text-anchor="middle" font-weight="bold">Subagents (S2)</text><text x="820.00" y="46.00" font-family="ui-sans-serif, -apple-system, BlinkMacSystemFont, 'Segoe UI', Helvetica, Arial, sans-serif" font-size="12" fill="#111827" text-anchor="middle" font-weight="bold">Code (S3)</text><text x="20.00" y="97.00" font-family="ui-sans-serif, -apple-system, BlinkMacSystemFont, 'Segoe UI', Helvetica, Arial, sans-serif" font-size="12" fill="#111827" text-anchor="start" font-weight="normal">R1 — Platform open</text><rect x="250.00" y="85.00" width="190.00" height="16.00" rx="8" fill="#f59e0b" opacity="0.9"/><rect x="440.00" y="85.00" width="190.00" height="16.00" rx="8" fill="#f59e0b" opacity="0.9"/><rect x="630.00" y="85.00" width="190.00" height="16.00" rx="8" fill="#f59e0b" opacity="0.9"/><circle cx="250.00" cy="93.00" r="6.00" fill="#22c55e" opacity="1" stroke="#ffffff" stroke-width="1.5"/><circle cx="440.00" cy="93.00" r="6.00" fill="#f59e0b" opacity="1" stroke="#ffffff" stroke-width="1.5"/><circle cx="630.00" cy="93.00" r="6.00" fill="#f59e0b" opacity="1" stroke="#ffffff" stroke-width="1.5"/><circle cx="820.00" cy="93.00" r="6.00" fill="#f59e0b" opacity="1" stroke="#ffffff" stroke-width="1.5"/><text x="20.00" y="143.00" font-family="ui-sans-serif, -apple-system, BlinkMacSystemFont, 'Segoe UI', Helvetica, Arial, sans-serif" font-size="12" fill="#111827" text-anchor="start" font-weight="normal">R2 — URL input</text><rect x="250.00" y="131.00" width="190.00" height="16.00" rx="8" fill="#22c55e" opacity="0.9"/><rect x="440.00" y="131.00" width="190.00" height="16.00" rx="8" fill="#22c55e" opacity="0.9"/><rect x="630.00" y="131.00" width="190.00" height="16.00" rx="8" fill="#22c55e" opacity="0.9"/><circle cx="250.00" cy="139.00" r="6.00" fill="#22c55e" opacity="1" stroke="#ffffff" stroke-width="1.5"/><circle cx="440.00" cy="139.00" r="6.00" fill="#22c55e" opacity="1" stroke="#ffffff" stroke-width="1.5"/><circle cx="630.00" cy="139.00" r="6.00" fill="#22c55e" opacity="1" stroke="#ffffff" stroke-width="1.5"/><circle cx="820.00" cy="139.00" r="6.00" fill="#22c55e" opacity="1" stroke="#ffffff" stroke-width="1.5"/><text x="20.00" y="189.00" font-family="ui-sans-serif, -apple-system, BlinkMacSystemFont, 'Segoe UI', Helvetica, Arial, sans-serif" font-size="12" fill="#111827" text-anchor="start" font-weight="normal">R3 — Look at the live site, CSS and code</text><rect x="250.00" y="177.00" width="190.00" height="16.00" rx="8" fill="#22c55e" opacity="0.9"/><rect x="440.00" y="177.00" width="190.00" height="16.00" rx="8" fill="#22c55e" opacity="0.9"/><rect x="630.00" y="177.00" width="190.00" height="16.00" rx="8" fill="#22c55e" opacity="0.9"/><circle cx="250.00" cy="185.00" r="6.00" fill="#22c55e" opacity="1" stroke="#ffffff" stroke-width="1.5"/><circle cx="440.00" cy="185.00" r="6.00" fill="#22c55e" opacity="1" stroke="#ffffff" stroke-width="1.5"/><circle cx="630.00" cy="185.00" r="6.00" fill="#22c55e" opacity="1" stroke="#ffffff" stroke-width="1.5"/><circle cx="820.00" cy="185.00" r="6.00" fill="#22c55e" opacity="1" stroke="#ffffff" stroke-width="1.5"/><text x="20.00" y="235.00" font-family="ui-sans-serif, -apple-system, BlinkMacSystemFont, 'Segoe UI', Helvetica, Arial, sans-serif" font-size="12" fill="#111827" text-anchor="start" font-weight="normal">R4 — Output file named design.md</text><rect x="250.00" y="223.00" width="190.00" height="16.00" rx="8" fill="#f59e0b" opacity="0.9"/><rect x="440.00" y="223.00" width="190.00" height="16.00" rx="8" fill="#f59e0b" opacity="0.9"/><rect x="630.00" y="223.00" width="190.00" height="16.00" rx="8" fill="#f59e0b" opacity="0.9"/><circle cx="250.00" cy="231.00" r="6.00" fill="#22c55e" opacity="1" stroke="#ffffff" stroke-width="1.5"/><circle cx="440.00" cy="231.00" r="6.00" fill="#f59e0b" opacity="1" stroke="#ffffff" stroke-width="1.5"/><circle cx="630.00" cy="231.00" r="6.00" fill="#f59e0b" opacity="1" stroke="#ffffff" stroke-width="1.5"/><circle cx="820.00" cy="231.00" r="6.00" fill="#f59e0b" opacity="1" stroke="#ffffff" stroke-width="1.5"/><text x="20.00" y="281.00" font-family="ui-sans-serif, -apple-system, BlinkMacSystemFont, 'Segoe UI', Helvetica, Arial, sans-serif" font-size="12" fill="#111827" text-anchor="start" font-weight="normal">R5 — Exhaustive, replicate-grade detail</text><rect x="250.00" y="269.00" width="190.00" height="16.00" rx="8" fill="#22c55e" opacity="0.9"/><rect x="440.00" y="269.00" width="190.00" height="16.00" rx="8" fill="#22c55e" opacity="0.9"/><rect x="630.00" y="269.00" width="190.00" height="16.00" rx="8" fill="#22c55e" opacity="0.9"/><circle cx="250.00" cy="277.00" r="6.00" fill="#22c55e" opacity="1" stroke="#ffffff" stroke-width="1.5"/><circle cx="440.00" cy="277.00" r="6.00" fill="#22c55e" opacity="1" stroke="#ffffff" stroke-width="1.5"/><circle cx="630.00" cy="277.00" r="6.00" fill="#22c55e" opacity="1" stroke="#ffffff" stroke-width="1.5"/><circle cx="820.00" cy="277.00" r="6.00" fill="#22c55e" opacity="1" stroke="#ffffff" stroke-width="1.5"/><polygon points="725.00,270.00 732.00,277.00 725.00,284.00 718.00,277.00" fill="#111827" stroke="#ffffff" stroke-width="1.5"/><text x="725.00" y="265.00" font-family="ui-sans-serif, -apple-system, BlinkMacSystemFont, 'Segoe UI', Helvetica, Arial, sans-serif" font-size="9" fill="#111827" text-anchor="middle" font-weight="bold">seq 8-9</text><text x="20.00" y="327.00" font-family="ui-sans-serif, -apple-system, BlinkMacSystemFont, 'Segoe UI', Helvetica, Arial, sans-serif" font-size="12" fill="#111827" text-anchor="start" font-weight="normal">R6 — Theme, colors, format</text><rect x="250.00" y="315.00" width="190.00" height="16.00" rx="8" fill="#22c55e" opacity="0.9"/><rect x="440.00" y="315.00" width="190.00" height="16.00" rx="8" fill="#22c55e" opacity="0.9"/><rect x="630.00" y="315.00" width="190.00" height="16.00" rx="8" fill="#22c55e" opacity="0.9"/><circle cx="250.00" cy="323.00" r="6.00" fill="#22c55e" opacity="1" stroke="#ffffff" stroke-width="1.5"/><circle cx="440.00" cy="323.00" r="6.00" fill="#22c55e" opacity="1" stroke="#ffffff" stroke-width="1.5"/><circle cx="630.00" cy="323.00" r="6.00" fill="#22c55e" opacity="1" stroke="#ffffff" stroke-width="1.5"/><circle cx="820.00" cy="323.00" r="6.00" fill="#22c55e" opacity="1" stroke="#ffffff" stroke-width="1.5"/><polygon points="725.00,316.00 732.00,323.00 725.00,330.00 718.00,323.00" fill="#111827" stroke="#ffffff" stroke-width="1.5"/><text x="725.00" y="311.00" font-family="ui-sans-serif, -apple-system, BlinkMacSystemFont, 'Segoe UI', Helvetica, Arial, sans-serif" font-size="9" fill="#111827" text-anchor="middle" font-weight="bold">seq 5-6</text><polygon points="725.00,316.00 732.00,323.00 725.00,330.00 718.00,323.00" fill="#111827" stroke="#ffffff" stroke-width="1.5"/><text x="725.00" y="311.00" font-family="ui-sans-serif, -apple-system, BlinkMacSystemFont, 'Segoe UI', Helvetica, Arial, sans-serif" font-size="9" fill="#111827" text-anchor="middle" font-weight="bold">seq 14-15</text><text x="20.00" y="373.00" font-family="ui-sans-serif, -apple-system, BlinkMacSystemFont, 'Segoe UI', Helvetica, Arial, sans-serif" font-size="12" fill="#111827" text-anchor="start" font-weight="normal">R7 — CSS animations and backgrounds</text><rect x="250.00" y="361.00" width="190.00" height="16.00" rx="8" fill="#22c55e" opacity="0.9"/><rect x="440.00" y="361.00" width="190.00" height="16.00" rx="8" fill="#22c55e" opacity="0.9"/><rect x="630.00" y="361.00" width="190.00" height="16.00" rx="8" fill="#22c55e" opacity="0.9"/><circle cx="250.00" cy="369.00" r="6.00" fill="#22c55e" opacity="1" stroke="#ffffff" stroke-width="1.5"/><circle cx="440.00" cy="369.00" r="6.00" fill="#22c55e" opacity="1" stroke="#ffffff" stroke-width="1.5"/><circle cx="630.00" cy="369.00" r="6.00" fill="#22c55e" opacity="1" stroke="#ffffff" stroke-width="1.5"/><circle cx="820.00" cy="369.00" r="6.00" fill="#22c55e" opacity="1" stroke="#ffffff" stroke-width="1.5"/><polygon points="725.00,362.00 732.00,369.00 725.00,376.00 718.00,369.00" fill="#111827" stroke="#ffffff" stroke-width="1.5"/><text x="725.00" y="357.00" font-family="ui-sans-serif, -apple-system, BlinkMacSystemFont, 'Segoe UI', Helvetica, Arial, sans-serif" font-size="9" fill="#111827" text-anchor="middle" font-weight="bold">seq 5-6</text><text x="20.00" y="419.00" font-family="ui-sans-serif, -apple-system, BlinkMacSystemFont, 'Segoe UI', Helvetica, Arial, sans-serif" font-size="12" fill="#111827" text-anchor="start" font-weight="normal">R8 — Every inline-encoded element</text><rect x="250.00" y="407.00" width="190.00" height="16.00" rx="8" fill="#22c55e" opacity="0.9"/><rect x="440.00" y="407.00" width="190.00" height="16.00" rx="8" fill="#22c55e" opacity="0.9"/><rect x="630.00" y="407.00" width="190.00" height="16.00" rx="8" fill="#22c55e" opacity="0.9"/><circle cx="250.00" cy="415.00" r="6.00" fill="#22c55e" opacity="1" stroke="#ffffff" stroke-width="1.5"/><circle cx="440.00" cy="415.00" r="6.00" fill="#22c55e" opacity="1" stroke="#ffffff" stroke-width="1.5"/><circle cx="630.00" cy="415.00" r="6.00" fill="#22c55e" opacity="1" stroke="#ffffff" stroke-width="1.5"/><circle cx="820.00" cy="415.00" r="6.00" fill="#22c55e" opacity="1" stroke="#ffffff" stroke-width="1.5"/><polygon points="725.00,408.00 732.00,415.00 725.00,422.00 718.00,415.00" fill="#111827" stroke="#ffffff" stroke-width="1.5"/><text x="725.00" y="403.00" font-family="ui-sans-serif, -apple-system, BlinkMacSystemFont, 'Segoe UI', Helvetica, Arial, sans-serif" font-size="9" fill="#111827" text-anchor="middle" font-weight="bold">seq 5-6</text><text x="20.00" y="465.00" font-family="ui-sans-serif, -apple-system, BlinkMacSystemFont, 'Segoe UI', Helvetica, Arial, sans-serif" font-size="12" fill="#111827" text-anchor="start" font-weight="normal">R9 — Shopify winter2026 as example input</text><rect x="250.00" y="453.00" width="190.00" height="16.00" rx="8" fill="#22c55e" opacity="0.9"/><rect x="440.00" y="453.00" width="190.00" height="16.00" rx="8" fill="#22c55e" opacity="0.9"/><rect x="630.00" y="453.00" width="190.00" height="16.00" rx="8" fill="#22c55e" opacity="0.9"/><circle cx="250.00" cy="461.00" r="6.00" fill="#22c55e" opacity="1" stroke="#ffffff" stroke-width="1.5"/><circle cx="440.00" cy="461.00" r="6.00" fill="#22c55e" opacity="1" stroke="#ffffff" stroke-width="1.5"/><circle cx="630.00" cy="461.00" r="6.00" fill="#22c55e" opacity="1" stroke="#ffffff" stroke-width="1.5"/><circle cx="820.00" cy="461.00" r="6.00" fill="#22c55e" opacity="1" stroke="#ffffff" stroke-width="1.5"/><polygon points="725.00,454.00 732.00,461.00 725.00,468.00 718.00,461.00" fill="#111827" stroke="#ffffff" stroke-width="1.5"/><text x="725.00" y="449.00" font-family="ui-sans-serif, -apple-system, BlinkMacSystemFont, 'Segoe UI', Helvetica, Arial, sans-serif" font-size="9" fill="#111827" text-anchor="middle" font-weight="bold">seq 8-9</text><circle cx="26.00" cy="514.00" r="6.00" fill="#22c55e" opacity="1"/><text x="38.00" y="518.00" font-family="ui-sans-serif, -apple-system, BlinkMacSystemFont, 'Segoe UI', Helvetica, Arial, sans-serif" font-size="11" fill="#111827" text-anchor="start" font-weight="normal">preserved</text><circle cx="127.75" cy="514.00" r="6.00" fill="#f59e0b" opacity="1"/><text x="139.75" y="518.00" font-family="ui-sans-serif, -apple-system, BlinkMacSystemFont, 'Segoe UI', Helvetica, Arial, sans-serif" font-size="11" fill="#111827" text-anchor="start" font-weight="normal">mutated</text><circle cx="216.67" cy="514.00" r="6.00" fill="#ef4444" opacity="1"/><text x="228.67" y="518.00" font-family="ui-sans-serif, -apple-system, BlinkMacSystemFont, 'Segoe UI', Helvetica, Arial, sans-serif" font-size="11" fill="#111827" text-anchor="start" font-weight="normal">dropped</text><polygon points="305.58,508.00 311.58,514.00 305.58,520.00 299.58,514.00" fill="#111827" stroke="#ffffff" stroke-width="1"/><text x="317.58" y="518.00" font-family="ui-sans-serif, -apple-system, BlinkMacSystemFont, 'Segoe UI', Helvetica, Arial, sans-serif" font-size="11" fill="#111827" text-anchor="start" font-weight="normal">recovery event</text></svg>